<?xml version="1.0" encoding="UTF-8" standalone="no"?><!DOCTYPE svg PUBLIC "-//W3C//DTD SVG 1.1//EN" "http://www.w3.org/Graphics/SVG/1.1/DTD/svg11.dtd"><svg width="100%" height="100%" viewBox="0 0 608 350" version="1.1" xmlns="http://www.w3.org/2000/svg" xmlns:xlink="http://www.w3.org/1999/xlink" xml:space="preserve" xmlns:serif="http://www.serif.com/" style="fill-rule:evenodd;clip-rule:evenodd;stroke-linejoin:round;stroke-miterlimit:2;"><path d="M291.049,183.594c-14.101,-6.471 -26.792,-3.993 -31.307,0.742c-3.014,3.159 -4.154,9.507 -1.374,13.259c1.536,2.073 3.994,2.319 6.286,2.663c5.836,0.875 11.879,-0.667 17.851,-0.219c5.129,0.384 10.152,3.649 15.288,4.419c2.45,0.368 6.609,-1.244 7.476,-3.843c2.893,-8.676 -7.734,-14.044 -14.22,-17.021Zm4.242,10.004c1.145,0 2.076,0.93 2.076,2.076c0,1.145 -0.931,2.076 -2.076,2.076c-1.146,0 -2.077,-0.931 -2.077,-2.076c0,-1.146 0.931,-2.076 2.077,-2.076Zm-26.578,-4.996c1.736,0 3.145,1.41 3.145,3.146c0,1.736 -1.409,3.145 -3.145,3.145c-1.736,0 -3.146,-1.409 -3.146,-3.145c0,-1.736 1.41,-3.146 3.146,-3.146Z" style="fill-opacity:0.05;"/><path d="M257.084,252.501c0,0 27.34,5.38 37.471,3.816c10.131,-1.565 30.606,-4.728 30.606,-4.728c0,0 9.612,-1.669 10.924,3.382c1.312,5.052 5.575,21.463 5.575,21.463c0,0 0.467,10.41 -5.575,11.893c-6.042,1.482 -8.483,-5.189 -8.727,-14.605c-0.244,-9.417 -4.73,-11.091 -7.842,-11.036c-3.113,0.055 -2.197,11.036 -2.197,11.036c0,0 -2.014,-8.236 0,-2.691c2.014,5.546 6.042,18.256 0,19.052c-6.042,0.797 -9.277,2.636 -12.114,0c-2.838,-2.635 -4.974,-21.879 -4.974,-21.879c0,0 -0.183,-3.13 -4.211,-3.542c-4.028,-0.412 -3.723,1.73 -2.624,6.369c1.098,4.64 3.326,15.017 1.159,17.296c-2.166,2.278 -10.375,7.741 -13.64,0c-3.265,-7.742 -1.037,-13.48 0,-19.162c1.038,-5.683 -3.661,-5.546 -6.103,0c-2.441,5.545 -1.678,16.554 -2.258,19.162c-0.579,2.608 -5.523,3.898 -9.428,1.756c-3.906,-2.141 0,-19.052 0,-19.052c0,0 0.823,-11.997 -4.639,-6.369c-5.462,5.628 -4.302,14.331 -2.746,16.362c1.556,2.032 0.397,7.467 -4.028,7.303c-4.424,-0.165 -8.91,-3.718 -7.201,-11.893c1.709,-8.175 3.692,-20.337 12.572,-23.933Z" style="fill-opacity:0.05;"/><path d="M220.477,183.957c10.147,0.031 12.586,-15.158 18.887,-20.017c14.592,-11.253 39.014,-6.141 57.013,-6.39c44.18,-0.609 49.423,33.743 49.792,38.729c0.708,9.55 -2.983,23.467 2.329,31.431c2.227,3.339 7.125,6.531 10.617,8.625c10.1,6.058 92.509,2.626 96.438,2.947c6.245,0.511 20.038,-2.767 25.278,1.946c5.134,4.62 -0.94,19.295 -9.765,20.018c-10.518,0.861 -25.1,1.379 -35.833,0c-0.551,-0.071 -28.537,-3.152 -25.185,4.386c0.979,2.203 9.371,3.198 11.204,3.565c10.92,2.183 23.558,0 35.29,0c3.371,0 10.425,-1.278 11.866,2.613c1.642,4.431 -1.496,9.821 -3.744,12.602c-6.189,7.656 -20.22,6.891 -30.785,6.475c-4.471,-0.176 -8.824,-0.505 -12.627,-0.505c-3.317,0 -12.887,-0.997 -14.029,3.113c-1.891,6.805 7.682,4.259 11.063,5.171c4.352,1.175 33.949,-3.801 35.784,-0.5c2.521,4.536 -4.597,13.335 -6.896,15.995c-12.05,4.525 -45.664,-1.722 -46.976,2.999c-1.087,3.915 2.409,6.452 5.886,5.805c5.906,-1.099 34.73,-2.277 37.726,3.125c2.063,3.719 0.085,13.337 -3.459,15.908c-6.847,4.969 -28.127,1.572 -38.938,2.652c-4.593,0.459 -13.509,1.862 -20.311,2.031c-29.213,0.722 -121.554,-5.207 -154.964,2.306c-4.315,0.97 -26.373,0.024 -38.319,-2.306c-13.462,-2.627 -14.769,-16.98 -11.928,-17.711c9.012,-2.316 26.557,3.942 29.171,1.599c4.335,-3.883 -6.366,-9.379 -7.045,-9.217c-4.442,1.066 -8.943,-0.556 -13.412,-0.556c-3.781,0 -13.084,0.487 -16.872,0c-6.981,-0.897 -9.935,-8.508 -10.877,-15.29c-0.521,-3.75 6.84,-5.505 9.641,-5.505c8.716,0 31.38,3.01 33.465,2.375c4.83,-1.472 -0.955,-6.873 -2.131,-6.99c-5.021,-0.502 -9.778,-1.001 -15.08,-1.001c-2.331,0 -20.605,-0.425 -22.929,-0.89c-8.471,-1.693 -11.126,-4.858 -9.332,-16.959c0.463,-3.125 4.354,-3.986 7.045,-3.614c3.181,0.44 21.078,0.612 26.947,0.612c2.902,0 10.739,-1.258 10.136,-5.06c-0.539,-3.394 -10.989,-1.229 -13.288,-1.056c-3.416,0.256 -17.405,0.764 -21.508,-0.056c-5.417,-1.083 -16.376,1.075 -17.181,-6.895c-0.578,-5.715 -2.082,-12.893 3.77,-16.403c2.089,-1.253 15.992,1.671 19.715,1.112c6.972,-1.045 64.137,0.493 69.9,-2.557c1.328,-0.703 3.447,-0.228 4.017,-2.28c2.082,-7.491 -8.381,-4.004 -12.978,-4.004c-2.933,0 -23.005,0.863 -29.604,-0.834c-1.765,-0.453 -8.486,-1.09 -9.642,-3.169c-2.968,-5.341 -3.554,-13.87 5.13,-14.428c3.22,-0.207 7.1,-1.001 10.834,-0.696c3.591,0.294 17.125,0.436 17.824,0c4.271,-2.665 -2.963,-5.522 -5.818,-6.039c-4.62,-0.837 -25.875,0.036 -29.577,1.146c-4.667,1.4 -10.975,6.678 -13.04,10.064c-2.053,3.367 -7.628,-1.64 -8.282,-5.171c-0.919,-4.959 -0.882,-12.204 1.236,-16.56c1.417,-2.915 3.603,-6.223 5.748,-8.795c8.725,-10.467 18.542,-9.883 33.188,-9.842c5.188,0.015 14.402,1.943 15.415,1.946Zm295.524,56.275c14.298,-2.011 58.454,-0.287 64.457,0c8.006,0.381 27.702,-5.043 24.097,9.642c-2.034,8.285 -12.984,10.802 -24.097,10.019c-13.915,-0.98 -46.638,0.881 -61.386,0c-9.857,-0.589 -21.862,10.815 -4.744,11.837c17.803,1.064 41.05,0.272 52.291,0c12.177,-0.294 15.122,5.221 13.839,11.094c-1.697,7.768 -8.088,3.738 -20.73,2.934c-11.782,-0.749 -59.839,4.177 -63.141,3.187c-3.302,-0.99 -17.998,10.427 1.227,10.19c19.224,-0.238 34.699,-0.429 42.899,-0.53c5.652,-0.07 17.371,-0.448 12.35,8.958c-5.021,9.407 -13.971,7.962 -26.49,6.724c-12.519,-1.237 -42.141,-0.037 -48.653,3.511c-8.523,4.645 -21.502,7.556 -17.738,-5.224c7.723,-26.22 28.657,-55.636 37.632,-62.7c7.719,-6.075 10.105,-8.506 18.187,-9.642Zm-504.411,-0.554c0,0 96.072,5.233 100.697,4.204c4.625,-1.029 20.883,0.214 22.218,14.07c1.335,13.855 3.892,28.409 9.025,47.672c1.726,6.477 -1.969,13.667 -12.076,11.694c-10.108,-1.973 -45.288,-4.285 -58.311,-1.759c-12.078,2.343 -22.594,-2.057 -24.389,-5.038c-1.796,-2.981 -2.883,-17.31 12.326,-15.294c15.21,2.016 51.827,4.29 58.645,3.303c6.818,-0.987 7.438,-7.035 0,-9.222c-7.438,-2.188 -71.709,-5.577 -79.623,-5.877c-7.915,-0.3 -15.591,-0.858 -15.829,-7.721c-0.239,-6.863 5.578,-10.381 13.588,-8.665c8.01,1.716 67.465,3.603 72.805,5.491c5.34,1.887 14.637,-9.652 1.621,-10.467c-13.016,-0.815 -65.081,-1.115 -72.185,-2.316c-7.104,-1.201 -23.649,0.472 -30.133,-1.801c-6.484,-2.274 -6.866,-7.121 -7.152,-11.282c-0.286,-4.161 8.773,-6.992 8.773,-6.992Zm237.926,7.442c1.311,-1.066 13.414,-0.577 16.417,-0.577c3.163,0 21.33,0.577 27.157,0.577c8.853,0 17.562,-0.259 26.273,-1.565c4.473,-0.67 8.9,-1.866 13.671,-1.208c8.187,1.13 19.827,40.182 11.015,45.352c-3.888,2.282 -8.687,5.977 -16.247,7.494c-2.648,0.532 -67.595,0.445 -70.444,-0.521c-4.731,-1.603 -9.215,-1.153 -13.609,-4.612c-3.773,-2.97 -7.036,-10.676 -6.255,-15.593c0.498,-3.141 5.453,-24.005 12.022,-29.347Zm52.424,-36.485c-4.75,0 -42.27,-6.864 -48.518,-7.879c-2.991,-0.485 -8.622,-8.407 -6.286,-11.42c5.967,-7.695 10.976,-18.558 20.658,-20.425c4.233,-0.816 35.77,3.324 40.737,6.452c5.87,3.697 8.502,35.907 0.701,33.382c-2.489,-0.806 -4.853,-0.11 -7.292,-0.11Z" style="fill-opacity:0.05;"/><path d="M461.945,227.357c-16.391,0.557 -50.804,5.287 -81.206,2.758c-4.866,-0.405 -16.632,0.321 -23.01,-14.958c-5.239,-12.551 -4.268,-38.458 -13.625,-49.09c-16.137,-18.336 -44.924,-18.672 -59.652,-18.094c-33.665,1.323 -47.888,5.808 -54.341,11.358c-4.105,3.531 -9.371,10.083 -13.806,11.875c-16.697,6.748 -35.551,4.792 -28.868,-5.139c7.761,-11.532 20.683,-30.312 33.56,-38.731c31.144,-20.36 63.432,-36.174 91.798,-31.268c28.365,4.906 72.053,46.664 78.396,60.706c6.458,14.299 10.658,25.778 12.608,34.06c0.597,2.537 10.173,10.269 17.632,10.624c5.988,0.285 12.968,-8.655 15.918,-10.624c12.391,-8.27 24.323,-13.716 35.414,-11.515c13.688,2.717 32.72,3.536 46.718,27.817c14.631,25.379 -3.291,22.055 -10.719,23.804c-7.428,1.75 -30.426,-4.14 -46.817,-3.583Zm-351.327,-56.387c13.861,1.312 24.939,-0.455 38.937,23.826c14.631,25.379 2.04,33.641 -5.388,35.39c-7.428,1.75 -32.96,-3.711 -49.351,-3.154c-16.391,0.556 -29.091,1.785 -37.638,0c-6.084,-1.271 -16.212,-0.902 -13.641,-10.709c2.571,-9.808 10.463,-21.127 22.854,-29.397c12.392,-8.271 32.895,-17.028 44.227,-15.956Z" style="fill-opacity:0.05;"/><path d="M309.101,19.866c1.481,-8.869 -1.421,-21.419 19.215,-19.708c20.636,1.712 33.768,10.318 36.554,19.708c2.786,9.389 -4.519,28.248 -3.923,37.116c0.395,5.86 -1.023,12.665 7.505,16.088c8.527,3.424 11.426,1.614 16.258,-4.743c4.833,-6.357 0.455,-19.023 3.923,-28.999c3.468,-9.976 8.584,-21.565 20.181,-22.397c11.598,-0.831 28.88,7.091 30.358,18.094c1.478,11.003 -3.127,25.282 -12.109,29.439c-8.982,4.156 -12.507,14.23 -4.775,18.925c7.731,4.694 14.61,1.32 19.442,-3.668c4.832,-4.988 9.38,-25.918 22.171,-28.95c12.791,-3.032 20.921,4.89 26.549,9.927c5.628,5.037 11.256,16.627 7.333,22.691c-3.922,6.063 -18.532,9.487 -26.207,22.054c-7.675,12.568 -3.695,8.509 0,14.426c3.695,5.917 11.427,6.406 23.535,-3.814c12.109,-10.22 20.952,-18.208 35.803,-19.178c14.85,-0.97 35.031,8.126 34.861,27.638c-0.171,19.512 -8.755,20.245 -18.249,21.761c-9.493,1.516 -28.769,-0.49 -35.674,5.697c-6.906,6.186 4.694,11.314 15.619,17.434c7.334,4.107 22.67,2.151 31.027,0c8.357,-2.152 18.794,-2.261 27.572,0c11.198,2.883 31.352,39.462 16.426,50.777c-6.213,4.711 -17.148,7.765 -30.939,8.198c-4.308,0.135 -23.895,4.306 -31.952,-3.416c-7.027,-6.734 -0.034,-22.559 -8.691,-29.577c-22.626,-18.34 -48.523,-24.73 -63.947,-25.982c-7.992,-0.65 -14.146,5.62 -27.795,8.233c-11.312,2.164 -26.204,-4.015 -30.358,-13.547c-22.328,-51.234 -60.104,-61.908 -76.08,-69.489c-9.114,-4.325 -22.428,-4.199 -23.633,-11.215c-2.594,-15.106 -2.861,-46.383 0,-63.523Zm-252.887,162.607c7.453,-8.449 24.302,-20.913 60.466,-18.95c7.952,0.432 20.008,3.691 29.54,5.45c8.485,1.566 19.556,16.155 28.717,-2.305c17.012,-34.281 79.821,-79.295 106.698,-78.194c25.546,1.048 14.099,-5.917 13.36,-16.479c-0.739,-10.563 4.738,-32.585 0,-46.799c-3.322,-9.967 -14.489,-27.679 -37.968,-22.006c-23.478,5.673 -20.863,10.563 -17.339,22.006c3.525,11.443 10.707,23.187 12.848,31.297c1.482,5.61 -4.15,8.66 -12.848,9.296c-8.698,0.636 -12.052,-17.365 -16.6,-23.918c-4.548,-6.553 -20.806,-23.766 -33.313,-14.524c-12.507,9.243 -11.939,24.06 -4.207,29.146c7.731,5.086 16.249,10.171 19.499,15.502c2.894,4.745 6.367,10.513 0,16.479c-6.367,5.966 -14.058,-0.952 -19.499,-4.694c-6.803,-4.678 -12.005,-19.145 -21.319,-23.375c-9.313,-4.23 -22,-17.751 -34.564,-2.005c-12.564,15.746 -10.346,19.414 0,25.38c10.347,5.966 27.913,24.842 31.324,25.82c3.411,0.978 8.129,9.047 3.24,16.48c-4.889,7.433 -12.279,8.704 -21.318,0c-9.039,-8.705 -54.01,-46.431 -69.871,-45.258c-15.861,1.174 -33.722,7.589 -41.169,32.871c-7.447,25.282 17.895,17.562 30.913,17.317c13.019,-0.244 27.856,4.114 38.657,7.586c10.801,3.472 3.447,12.682 -8.433,15.036c-11.881,2.355 -10.419,0.249 -26.238,-1.527c-19.159,-2.152 -35.199,-7.019 -41.437,-4.654c-13.789,5.226 -27.33,43.912 -25.113,57.067c2.217,13.154 12.709,7.963 27.262,10.506c14.554,2.543 10.783,-12.225 28.712,-32.551Z" style="fill-opacity:0.05;"/></svg>