<?xml version="1.0" encoding="UTF-8" standalone="no"?><!DOCTYPE svg PUBLIC "-//W3C//DTD SVG 1.1//EN" "http://www.w3.org/Graphics/SVG/1.1/DTD/svg11.dtd"><svg width="100%" height="100%" viewBox="0 0 1117 358" version="1.1" xmlns="http://www.w3.org/2000/svg" xmlns:xlink="http://www.w3.org/1999/xlink" xml:space="preserve" xmlns:serif="http://www.serif.com/" style="fill-rule:evenodd;clip-rule:evenodd;stroke-linejoin:round;stroke-miterlimit:2;"><path d="M403.706,50.732c18.818,0.057 23.342,-28.114 35.028,-37.125c27.065,-20.871 72.36,-11.391 105.742,-11.852c81.941,-1.13 91.664,62.582 92.35,71.83c1.312,17.713 -5.533,43.523 4.319,58.296c4.13,6.192 13.214,12.112 19.691,15.997c18.732,11.235 171.576,4.869 178.864,5.465c11.582,0.948 37.165,-5.133 46.882,3.61c9.523,8.567 -1.742,35.785 -18.111,37.125c-19.508,1.598 -46.553,2.559 -66.458,0c-1.022,-0.131 -52.928,-5.845 -46.712,8.135c1.816,4.086 17.381,5.933 20.781,6.613c20.254,4.049 43.693,0 65.452,0c6.251,0 19.334,-2.371 22.008,4.847c3.045,8.217 -2.775,18.215 -6.944,23.372c-11.479,14.2 -37.503,12.782 -57.097,12.009c-8.293,-0.326 -16.366,-0.937 -23.419,-0.937c-6.152,0 -23.902,-1.849 -26.021,5.775c-3.507,12.621 14.249,7.899 20.519,9.591c8.073,2.179 62.966,-7.051 66.369,-0.928c4.675,8.412 -8.525,24.732 -12.79,29.665c-22.349,8.393 -84.693,-3.193 -87.125,5.562c-2.018,7.261 4.466,11.968 10.916,10.767c10.953,-2.039 64.412,-4.224 69.971,5.797c3.825,6.896 0.156,24.735 -6.417,29.505c-12.699,9.215 -52.167,2.913 -72.218,4.918c-8.519,0.851 -25.055,3.453 -37.671,3.765c-54.18,1.341 -225.445,-9.657 -287.412,4.279c-8.002,1.799 -48.912,0.044 -71.068,-4.279c-24.969,-4.871 -27.394,-31.492 -22.123,-32.847c16.714,-4.297 49.255,7.311 54.104,2.966c8.038,-7.203 -11.809,-17.396 -13.068,-17.094c-8.239,1.976 -16.587,-1.032 -24.874,-1.032c-7.013,0 -24.268,0.903 -31.293,0c-12.948,-1.664 -18.427,-15.781 -20.175,-28.36c-0.966,-6.953 12.687,-10.209 17.882,-10.209c16.165,0 58.2,5.583 62.067,4.405c8.959,-2.73 -1.771,-12.747 -3.951,-12.965c-9.313,-0.931 -18.136,-1.856 -27.969,-1.856c-4.324,0 -38.217,-0.788 -42.527,-1.65c-15.711,-3.141 -20.634,-9.01 -17.308,-31.454c0.859,-5.796 8.076,-7.394 13.067,-6.703c5.899,0.817 39.092,1.134 49.978,1.134c5.382,0 19.918,-2.333 18.799,-9.384c-1,-6.295 -20.381,-2.279 -24.645,-1.959c-6.336,0.475 -32.282,1.418 -39.891,-0.104c-10.047,-2.008 -30.372,1.995 -31.866,-12.787c-1.071,-10.601 -3.861,-23.913 6.992,-30.423c3.875,-2.324 29.662,3.098 36.566,2.063c12.932,-1.939 118.954,0.913 129.644,-4.744c2.463,-1.304 6.393,-0.422 7.451,-4.228c3.86,-13.893 -15.545,-7.425 -24.072,-7.425c-5.439,0 -42.667,1.599 -54.907,-1.547c-3.273,-0.842 -15.739,-2.023 -17.881,-5.878c-5.506,-9.907 -6.592,-25.725 9.514,-26.76c5.972,-0.383 13.167,-1.857 20.094,-1.291c6.66,0.545 31.761,0.809 33.058,0c7.92,-4.943 -5.496,-10.241 -10.79,-11.2c-8.57,-1.553 -47.992,0.066 -54.857,2.125c-8.656,2.596 -20.356,12.386 -24.186,18.666c-3.808,6.244 -14.147,-3.042 -15.36,-9.591c-1.704,-9.198 -1.636,-22.635 2.292,-30.714c2.629,-5.406 6.684,-11.541 10.661,-16.312c16.183,-19.412 34.39,-18.329 61.555,-18.253c9.621,0.027 26.71,3.604 28.59,3.609Zm548.107,104.372c26.518,-3.73 108.414,-0.531 119.547,0c14.849,0.708 51.38,-9.353 44.693,17.884c-3.773,15.366 -24.082,20.034 -44.693,18.582c-25.808,-1.818 -86.499,1.634 -113.853,0c-18.282,-1.092 -40.547,20.058 -8.798,21.955c33.02,1.971 76.135,0.503 96.985,0c22.584,-0.546 28.045,9.682 25.666,20.574c-3.147,14.408 -15.001,6.934 -38.448,5.443c-21.851,-1.39 -110.983,7.747 -117.107,5.911c-6.123,-1.836 -33.381,19.339 2.275,18.898c35.656,-0.44 64.357,-0.794 79.565,-0.982c10.484,-0.13 32.219,-0.831 22.906,16.615c-9.313,17.446 -25.912,14.766 -49.13,12.471c-23.219,-2.296 -78.159,-0.07 -90.237,6.512c-15.808,8.614 -39.881,14.013 -32.899,-9.691c14.324,-48.629 53.149,-103.188 69.795,-116.288c14.317,-11.268 18.743,-15.776 33.733,-17.884Zm-935.53,-1.026c0,0 178.185,9.706 186.762,7.796c8.578,-1.909 38.732,0.398 41.208,26.095c2.476,25.697 7.218,52.691 16.738,88.418c3.201,12.012 -3.65,25.348 -22.397,21.689c-18.747,-3.66 -83.995,-7.947 -108.149,-3.262c-22.401,4.345 -41.904,-3.815 -45.235,-9.345c-3.331,-5.529 -5.346,-32.104 22.862,-28.365c28.209,3.739 96.123,7.956 108.768,6.126c12.645,-1.83 13.795,-13.048 0,-17.105c-13.795,-4.057 -132.997,-10.342 -147.676,-10.899c-14.679,-0.557 -28.917,-1.591 -29.359,-14.32c-0.442,-12.73 10.347,-19.253 25.203,-16.071c14.856,3.182 125.127,6.683 135.031,10.183c9.904,3.501 27.147,-17.9 3.006,-19.412c-24.141,-1.511 -120.705,-2.068 -133.881,-4.296c-13.176,-2.227 -43.861,0.875 -55.887,-3.341c-12.027,-4.217 -12.734,-13.206 -13.265,-20.924c-0.53,-7.717 16.271,-12.967 16.271,-12.967Zm538.51,-53.866c-8.81,0 -78.396,-12.731 -89.985,-14.613c-5.548,-0.901 -15.991,-15.593 -11.659,-21.181c11.066,-14.273 20.358,-34.42 38.315,-37.882c7.85,-1.514 66.343,6.164 75.554,11.965c10.887,6.857 15.768,66.597 1.301,61.914c-4.617,-1.494 -9.001,-0.203 -13.526,-0.203Z" style="fill:#85360d;"/></svg>