<?xml version="1.0" encoding="UTF-8" standalone="no"?><!DOCTYPE svg PUBLIC "-//W3C//DTD SVG 1.1//EN" "http://www.w3.org/Graphics/SVG/1.1/DTD/svg11.dtd"><svg width="100%" height="100%" viewBox="0 0 500 332" version="1.1" xmlns="http://www.w3.org/2000/svg" xmlns:xlink="http://www.w3.org/1999/xlink" xml:space="preserve" xmlns:serif="http://www.serif.com/" style="fill-rule:evenodd;clip-rule:evenodd;stroke-linejoin:round;stroke-miterlimit:2;"><path d="M55.231,18.405c5.962,-6.617 61.03,-3.58 74.692,-3.58c14.391,0 97.051,3.58 123.563,3.58c40.278,-0 79.903,-1.606 119.536,-9.716c20.35,-4.164 40.493,-11.586 62.198,-7.5c37.253,7.013 90.211,249.48 50.119,281.58c-17.691,14.166 -39.524,37.107 -73.919,46.529c-12.049,3.3 -307.548,2.759 -320.509,-3.235c-21.528,-9.955 -41.93,-7.161 -61.92,-28.635c-17.166,-18.44 -32.014,-66.284 -28.461,-96.814c2.269,-19.501 24.811,-149.044 54.701,-182.209Z" style="fill:#ffcd00;"/></svg>